<?xml version="1.0" standalone="no"?>
<!DOCTYPE svg PUBLIC "-//W3C//DTD SVG 20010904//EN"
 "http://www.w3.org/TR/2001/REC-SVG-20010904/DTD/svg10.dtd">
<svg version="1.0" xmlns="http://www.w3.org/2000/svg"
 width="600.000000pt" height="600.000000pt" viewBox="0 0 600.000000 600.000000"
 preserveAspectRatio="xMidYMid meet">

<g transform="translate(0.000000,600.000000) scale(0.100000,-0.100000)"
fill="#000000" stroke="none">
<path d="M2790 5300 c-309 -33 -577 -111 -844 -248 -663 -338 -1120 -979
-1232 -1727 -22 -146 -25 -464 -5 -605 68 -494 273 -934 598 -1280 l80 -84
159 116 c87 64 343 251 568 416 352 258 414 300 440 297 37 -3 62 -13 96 -35
14 -10 50 -33 80 -53 30 -19 139 -98 242 -175 225 -169 266 -187 413 -180 120
5 198 41 278 127 88 95 109 200 65 318 -19 51 -43 80 -205 244 -199 201 -234
243 -238 286 -3 26 42 61 796 613 439 321 799 587 799 591 0 13 -110 78 -243
144 l-127 63 92 68 c115 83 127 95 63 60 l-50 -26 35 30 c19 16 42 29 50 27
18 -3 115 -142 176 -254 25 -46 48 -83 51 -83 2 0 31 20 63 45 57 44 58 46 47
73 -27 60 -63 122 -123 212 -359 543 -930 905 -1584 1005 -126 19 -422 27
-540 15z m695 -1259 c61 -27 141 -102 166 -156 25 -54 25 -137 -1 -190 -27
-55 -51 -77 -465 -430 -198 -168 -360 -310 -360 -314 0 -4 171 -153 380 -330
209 -178 391 -335 403 -350 58 -65 79 -171 48 -246 -24 -57 -100 -130 -169
-161 -51 -23 -76 -28 -143 -29 -129 0 -144 10 -700 485 -530 451 -537 457
-561 504 -21 40 -29 159 -14 212 17 64 60 109 276 292 110 93 331 280 490 417
160 136 307 259 328 273 83 56 225 66 322 23z"/>
</g>
</svg>
