<?xml version="1.0" standalone="no"?>
<!DOCTYPE svg PUBLIC "-//W3C//DTD SVG 20010904//EN"
 "http://www.w3.org/TR/2001/REC-SVG-20010904/DTD/svg10.dtd">
<svg version="1.0" xmlns="http://www.w3.org/2000/svg"
 width="600.000000pt" height="600.000000pt" viewBox="0 0 600.000000 600.000000"
 preserveAspectRatio="xMidYMid meet">

<g transform="translate(0.000000,600.000000) scale(0.100000,-0.100000)"
fill="#000000" stroke="none">
<path d="M2719 4695 c-710 -115 -1251 -630 -1401 -1331 -20 -96 -23 -136 -23
-334 0 -195 3 -239 23 -327 48 -221 132 -422 247 -593 67 -99 162 -214 208
-250 l27 -21 32 22 c18 13 141 102 273 199 132 97 246 179 253 184 8 5 32 -10
66 -42 86 -78 134 -97 241 -97 70 0 100 5 135 21 25 12 156 115 290 229 135
115 292 249 350 298 58 49 129 109 157 133 78 67 105 120 111 215 3 59 0 91
-12 123 -9 24 -18 52 -21 63 -3 17 58 65 330 264 184 134 334 246 335 249 0 3
-14 14 -30 25 -17 11 -28 25 -26 32 3 8 -1 10 -12 6 -9 -3 -5 4 10 15 14 12
28 22 31 22 2 0 16 -18 31 -40 l27 -41 44 32 c25 18 45 35 45 38 0 4 -20 41
-44 83 -238 418 -644 710 -1124 809 -129 27 -448 35 -573 14z m91 -910 c37
-19 764 -635 791 -669 64 -84 47 -198 -42 -282 -102 -95 -717 -613 -749 -630
-51 -27 -171 -26 -225 3 -72 38 -125 114 -125 177 0 74 21 97 326 357 162 138
294 252 294 254 0 2 -127 113 -282 245 -156 133 -293 255 -305 272 -73 103 -7
242 137 289 39 13 142 4 180 -16z"/>
</g>
</svg>
